<svg width="158" height="48" viewBox="0 0 158 48" fill="none" xmlns="http://www.w3.org/2000/svg">
<g clip-path="url(#clip0_5_126)">
<g filter="url(#filter0_f_5_126)">
<path d="M24.9656 46.08L41.4559 41.088L37.6209 26.304L22.4728 26.9415L1.76408 36.288L24.9656 46.08Z" fill="#B0B0B0"/>
</g>
<g filter="url(#filter1_n_5_126)">
<path d="M22.2811 8.83203L41.4558 16.512V41.088L22.2811 33.408V8.83203Z" fill="url(#paint0_linear_5_126)"/>
</g>
<g filter="url(#filter2_n_5_126)">
<path d="M58.3296 8.83203L41.4558 16.512V41.088L58.3296 33.408V8.83203Z" fill="url(#paint1_linear_5_126)"/>
</g>
<g filter="url(#filter3_n_5_126)">
<path d="M41.4558 16.7039L22.2811 8.83194L39.1548 0.767944L58.3296 8.83194L41.4558 16.7039Z" fill="url(#paint2_linear_5_126)"/>
</g>
<path d="M76.5303 25.9062C77.5285 25.9062 78.363 25.4966 79.0338 24.6774C79.7045 23.8418 80.04 22.6376 80.04 21.0647C80.04 19.7376 79.5572 18.6481 78.592 17.7961C77.6267 16.9441 76.3175 16.5182 74.665 16.5182C74.5833 16.4199 74.5342 16.2314 74.5177 15.9529C74.5177 15.658 74.5668 15.4368 74.665 15.2894H75.4013C76.6776 15.2894 77.6758 14.9371 78.3956 14.2326C79.1154 13.5281 79.4755 12.5696 79.4755 11.3572C79.4755 10.0301 79.1891 9.03889 78.6165 8.38352C78.044 7.71179 77.3483 7.3759 76.5303 7.3759C74.9921 7.3759 74.0514 8.61288 73.7078 11.0869C72.9715 11.1033 72.4235 11.0787 72.0634 11.0131C71.7033 10.9312 71.4087 10.7674 71.1798 10.5216C71.3926 9.19452 71.9817 8.17051 72.9469 7.44963C73.9287 6.72875 75.1804 6.36829 76.7021 6.36829C78.322 6.36829 79.6147 6.79426 80.58 7.64624C81.5618 8.48182 82.0526 9.56316 82.0526 10.8903C82.0526 12.0044 81.7171 12.9956 81.0463 13.864C80.3917 14.7323 79.4019 15.3631 78.0766 15.7563V15.83C79.5492 16.0758 80.6947 16.6247 81.5127 17.4766C82.3472 18.3286 82.7644 19.4755 82.7644 20.9173C82.7644 22.7523 82.1999 24.2268 81.0709 25.3409C79.9419 26.4387 78.3791 26.9875 76.383 26.9875C74.8122 26.9875 73.5034 26.6762 72.4561 26.0536C71.4087 25.4147 70.8853 24.489 70.8853 23.2766C71.2289 22.8997 72.0714 22.7277 73.4133 22.7605C73.6422 23.9401 74.0023 24.7593 74.4932 25.2181C75.0005 25.6768 75.6793 25.9062 76.5303 25.9062ZM90.5279 25.9062C91.5261 25.9062 92.3606 25.4966 93.0313 24.6774C93.7021 23.8418 94.0376 22.6376 94.0376 21.0647C94.0376 19.7376 93.5548 18.6481 92.5895 17.7961C91.6243 16.9441 90.315 16.5182 88.6625 16.5182C88.5809 16.4199 88.5318 16.2314 88.5153 15.9529C88.5153 15.658 88.5644 15.4368 88.6625 15.2894H89.3989C90.6751 15.2894 91.6734 14.9371 92.3932 14.2326C93.113 13.5281 93.4731 12.5696 93.4731 11.3572C93.4731 10.0301 93.1866 9.03889 92.6141 8.38352C92.0415 7.71179 91.3459 7.3759 90.5279 7.3759C88.9897 7.3759 88.049 8.61288 87.7053 11.0869C86.969 11.1033 86.421 11.0787 86.0609 11.0131C85.7008 10.9312 85.4063 10.7674 85.1773 10.5216C85.3902 9.19452 85.9792 8.17051 86.9445 7.44963C87.9262 6.72875 89.178 6.36829 90.6997 6.36829C92.3196 6.36829 93.6123 6.79426 94.5776 7.64624C95.5593 8.48182 96.0502 9.56316 96.0502 10.8903C96.0502 12.0044 95.7146 12.9956 95.0439 13.864C94.3893 14.7323 93.3995 15.3631 92.0741 15.7563V15.83C93.5467 16.0758 94.6922 16.6247 95.5102 17.4766C96.3447 18.3286 96.762 19.4755 96.762 20.9173C96.762 22.7523 96.1975 24.2268 95.0684 25.3409C93.9394 26.4387 92.3767 26.9875 90.3806 26.9875C88.8098 26.9875 87.5009 26.6762 86.4536 26.0536C85.4063 25.4147 84.8828 24.489 84.8828 23.2766C85.2264 22.8997 86.069 22.7277 87.4108 22.7605C87.6398 23.9401 87.9999 24.7593 88.4907 25.2181C88.9981 25.6768 89.6769 25.9062 90.5279 25.9062ZM99.3713 17.0097C99.3713 15.4368 99.5185 14.0032 99.813 12.7089C100.124 11.3982 100.574 10.2759 101.163 9.34198C101.752 8.3917 102.472 7.66263 103.323 7.15472C104.174 6.63044 105.147 6.36829 106.243 6.36829C107.372 6.36829 108.362 6.63862 109.213 7.17929C110.064 7.70357 110.776 8.44907 111.349 9.41571C111.938 10.366 112.379 11.5128 112.674 12.8563C112.968 14.1834 113.116 15.6498 113.116 17.2554C113.116 18.5825 112.96 19.8359 112.649 21.0156C112.338 22.1952 111.889 23.2274 111.299 24.1121C110.71 24.9969 109.991 25.7014 109.14 26.2257C108.289 26.7336 107.323 26.9875 106.243 26.9875C105.114 26.9875 104.125 26.7254 103.274 26.2011C102.423 25.6604 101.703 24.9395 101.114 24.0384C100.541 23.1209 100.108 22.0642 99.813 20.8681C99.5185 19.6557 99.3713 18.3695 99.3713 17.0097ZM106.243 25.8816C106.8 25.8816 107.315 25.6686 107.79 25.2426C108.281 24.8003 108.698 24.1695 109.041 23.3503C109.402 22.5311 109.68 21.5398 109.876 20.3766C110.072 19.1969 110.17 17.8698 110.17 16.3953C110.17 13.5281 109.843 11.3245 109.189 9.78435C108.551 8.24424 107.569 7.47421 106.243 7.47421C104.918 7.47421 103.928 8.24424 103.274 9.78435C102.636 11.3245 102.316 13.5281 102.316 16.3953C102.316 19.5083 102.652 21.8676 103.323 23.4732C103.994 25.0788 104.967 25.8816 106.243 25.8816ZM115.74 6.85981C116.411 6.85981 117.475 6.82705 118.931 6.7615C120.403 6.69595 121.737 6.6632 122.931 6.6632C125.467 6.6632 127.276 7.1629 128.355 8.16233C129.435 9.14537 129.975 10.5216 129.975 12.2911C129.975 13.864 129.272 15.1829 127.865 16.2478C126.474 17.3128 124.813 17.8453 122.882 17.8453C121.884 17.8453 121.041 17.7961 120.354 17.6978V25.4147L122.588 25.6604C122.653 25.9062 122.653 26.2093 122.588 26.5697C121.557 26.5206 120.395 26.496 119.102 26.496C118.137 26.496 116.967 26.5124 115.593 26.5452C115.495 26.2503 115.495 25.9553 115.593 25.6604L117.63 25.3655C117.695 24.7429 117.728 23.7845 117.728 22.4901V8.01488L115.74 7.76912C115.674 7.52336 115.674 7.22027 115.74 6.85981ZM120.354 10.9394V16.6902C120.862 16.7557 121.598 16.7885 122.563 16.7885C123.414 16.7885 124.142 16.6492 124.747 16.3707C125.369 16.0758 125.835 15.6908 126.146 15.2156C126.458 14.7241 126.678 14.2326 126.809 13.7411C126.94 13.2496 127.006 12.7253 127.006 12.1682C127.006 10.7428 126.645 9.64507 125.926 8.87504C125.206 8.0886 124.003 7.69539 122.318 7.69539C121.712 7.69539 121.107 7.75272 120.501 7.86742C120.403 8.80131 120.354 9.82532 120.354 10.9394ZM150.402 22.4901V8.35894L142.99 27.2333H142.351L135.209 8.97334V22.4901C135.209 23.7845 135.242 24.7429 135.307 25.3655L137.59 25.6604C137.688 25.9553 137.688 26.2503 137.59 26.5452C136.183 26.5124 135.185 26.496 134.596 26.496C133.614 26.496 132.624 26.5206 131.626 26.5697C131.56 26.2093 131.56 25.9062 131.626 25.6604L133.859 25.4147V10.9394C133.859 9.64507 133.827 8.68661 133.761 8.06403L131.724 7.76912C131.626 7.4906 131.626 7.21205 131.724 6.93353H137.124L143.284 23.1045L149.592 6.93353C149.968 6.94993 150.541 6.95811 151.31 6.95811C151.474 6.95811 152.758 6.93353 155.163 6.88438C155.261 7.17929 155.261 7.47421 155.163 7.76912L153.126 8.06403C153.061 8.68661 153.028 9.64507 153.028 10.9394V25.4147L155.016 25.6604C155.082 25.9062 155.082 26.2093 155.016 26.5697C153.985 26.5206 152.864 26.496 151.653 26.496C150.77 26.496 149.641 26.5124 148.266 26.5452C148.168 26.1356 148.168 25.8406 148.266 25.6604L150.304 25.3655C150.369 24.7429 150.402 23.7845 150.402 22.4901Z" fill="black"/>
<path d="M77.0334 41.1893C77.1726 41.2796 77.2789 41.4351 77.3525 41.6563C76.2154 42.7211 75.0619 43.2537 73.8918 43.2537C73.09 43.2537 72.3905 43.1105 71.7934 42.8236C71.1963 42.5287 70.7012 42.1436 70.3085 41.6686C69.9158 41.1851 69.6212 40.6406 69.4249 40.0343C69.2366 39.4199 69.1426 38.7932 69.1426 38.1542C69.1426 37.507 69.2531 36.8762 69.474 36.2618C69.6949 35.6393 70.0182 35.0863 70.4435 34.603C70.8688 34.1114 71.3926 33.7182 72.0142 33.4233C72.6443 33.1284 73.3599 32.981 74.1618 32.981C75.2172 32.981 76.1989 33.2267 77.1071 33.7182V36.0775C76.9598 36.1021 76.829 36.1144 76.7144 36.1144C76.5916 36.1144 76.4893 36.1021 76.4076 36.0775L76.0149 34.0254C75.5159 33.6978 74.849 33.5339 74.0146 33.5339C73.4991 33.5339 73.0328 33.6527 72.6156 33.8903C72.2064 34.1196 71.8547 34.435 71.5602 34.8364C71.2737 35.2297 71.0528 35.6966 70.8975 36.2373C70.7422 36.7698 70.6643 37.3391 70.6643 37.9453C70.6643 38.5923 70.738 39.1906 70.8852 39.7394C71.0406 40.2881 71.2576 40.7635 71.5356 41.1648C71.8137 41.566 72.1492 41.8817 72.5419 42.1109C72.9427 42.3321 73.3887 42.4427 73.8796 42.4427C74.4686 42.4427 75.0373 42.3279 75.5854 42.0986C76.1334 41.8694 76.6162 41.566 77.0334 41.1893ZM79.3252 42.4673L80.3192 42.5902C80.3518 42.713 80.3518 42.8647 80.3192 43.0448C79.8038 43.0202 79.3701 43.008 79.0184 43.008C78.8221 43.008 78.3803 43.016 77.693 43.0325C77.644 42.8851 77.644 42.7376 77.693 42.5902L78.503 42.4427C78.6338 42.2461 78.7975 41.8817 78.9939 41.3491L82.16 32.8704H82.5895L86.1483 42.4673L87.1424 42.5902C87.175 42.713 87.175 42.8647 87.1424 43.0448C86.6269 43.0202 86.0502 43.008 85.412 43.008C84.9373 43.008 84.3567 43.016 83.6694 43.0325C83.6203 42.8851 83.6203 42.7376 83.6694 42.5902L84.688 42.4427L83.6081 39.4076H80.4174L79.3252 42.4673ZM82.0495 34.7258H82.0373C81.9391 35.1109 81.7796 35.6147 81.5587 36.2373L80.6383 38.7932H83.3872L82.4913 36.2373C82.3195 35.7376 82.1723 35.2338 82.0495 34.7258ZM87.55 33.1898C87.8856 33.1898 88.4175 33.1735 89.1454 33.1407C89.8817 33.1079 90.5486 33.0915 91.1457 33.0915C92.3894 33.0915 93.2771 33.3414 93.8087 33.8411C94.3406 34.3326 94.6063 35.0208 94.6063 35.9055C94.6063 36.438 94.4223 36.9172 94.0541 37.3432C93.6859 37.7692 93.2035 38.0887 92.606 38.3017C92.9581 38.8995 93.2852 39.461 93.5878 39.9851C93.8988 40.5093 94.1239 40.8986 94.2627 41.1525C94.4019 41.4063 94.5289 41.6359 94.6432 41.8406C94.7578 42.0372 94.8395 42.1724 94.8886 42.2461C94.9461 42.3198 94.999 42.3813 95.0481 42.4304L95.9317 42.5533C95.9647 42.6762 95.9647 42.8279 95.9317 43.008H93.8455L91.9924 39.641C91.747 39.1741 91.5138 38.8135 91.2929 38.5597H91.1211C90.7039 38.5597 90.2828 38.5351 89.8571 38.486V42.4673L90.9739 42.5902C91.0069 42.713 91.0069 42.8647 90.9739 43.0448C90.4585 43.0202 89.8778 43.008 89.2313 43.008C88.7488 43.008 88.1636 43.016 87.4764 43.0325C87.4273 42.8851 87.4273 42.7376 87.4764 42.5902L88.495 42.4427C88.5279 42.1313 88.544 41.6521 88.544 41.005V33.7674L87.55 33.6445C87.5174 33.5216 87.5174 33.3701 87.55 33.1898ZM89.8571 35.2297V37.9822C90.111 38.0149 90.4792 38.0313 90.9616 38.0313C91.3788 38.0313 91.7347 37.9658 92.0292 37.8347C92.3322 37.6954 92.5569 37.5152 92.7042 37.294C92.8515 37.0647 92.9581 36.8312 93.0233 36.5936C93.0888 36.356 93.1214 36.1062 93.1214 35.8441C93.1214 35.1395 92.9458 34.5907 92.5938 34.1975C92.2421 33.8042 91.6573 33.6076 90.8389 33.6076C90.5363 33.6076 90.2337 33.6363 89.9308 33.6937C89.8817 34.1606 89.8571 34.6726 89.8571 35.2297ZM96.3823 33.1898C96.7179 33.1898 97.2498 33.1735 97.9776 33.1407C98.7139 33.1079 99.3808 33.0915 99.9779 33.0915C101.246 33.0915 102.15 33.3414 102.69 33.8411C103.23 34.3326 103.5 35.0208 103.5 35.9055C103.5 36.6919 103.148 37.3514 102.445 37.8839C101.749 38.4165 100.919 38.6826 99.9534 38.6826C99.4545 38.6826 99.033 38.658 98.6894 38.6089V42.4673L99.8061 42.5902C99.8391 42.713 99.8391 42.8647 99.8061 43.0448C99.2907 43.0202 98.7101 43.008 98.0635 43.008C97.5811 43.008 96.9959 43.016 96.3087 43.0325C96.2596 42.8851 96.2596 42.7376 96.3087 42.5902L97.3272 42.4427C97.3602 42.1313 97.3763 41.6521 97.3763 41.005V33.7674L96.3823 33.6445C96.3497 33.5216 96.3497 33.3701 96.3823 33.1898ZM98.6894 35.2297V38.105C98.9433 38.1378 99.3114 38.1542 99.7939 38.1542C100.22 38.1542 100.583 38.0846 100.886 37.9453C101.197 37.7978 101.43 37.6053 101.586 37.3678C101.741 37.122 101.852 36.8762 101.917 36.6305C101.982 36.3847 102.015 36.1226 102.015 35.8441C102.015 35.1314 101.835 34.5825 101.475 34.1975C101.115 33.8042 100.514 33.6076 99.6712 33.6076C99.3686 33.6076 99.066 33.6363 98.763 33.6937C98.7139 34.1606 98.6894 34.6726 98.6894 35.2297ZM105.43 41.0173V33.7674L104.436 33.6322C104.387 33.4848 104.387 33.3373 104.436 33.1898L106.117 33.2267H111.075L111.087 36.0775C110.907 36.1103 110.756 36.1103 110.633 36.0775L110.057 33.8534H106.743V37.5398L108.706 37.5029L108.989 36.2987C109.111 36.266 109.263 36.266 109.443 36.2987C109.41 36.7575 109.394 37.2859 109.394 37.8839C109.394 38.4326 109.406 38.9652 109.43 39.4813C109.283 39.5305 109.136 39.5305 108.989 39.4813L108.719 38.2034L106.743 38.1665V42.3813H110.424L111.001 40.1571C111.124 40.1245 111.275 40.1245 111.455 40.1571L111.443 43.008H106.117L104.362 43.0448C104.313 42.8974 104.313 42.7499 104.362 42.6025L105.381 42.4673C105.414 42.0495 105.43 41.566 105.43 41.0173ZM120.68 39.7148V35.2665C120.68 34.6194 120.664 34.1401 120.631 33.8288L119.49 33.6814C119.441 33.5339 119.441 33.3865 119.49 33.239C120.005 33.2636 120.505 33.2759 120.987 33.2759C121.519 33.2759 122.014 33.2595 122.472 33.2267C122.505 33.4069 122.505 33.5585 122.472 33.6814L121.355 33.8042V43.008H120.705L115.293 35.672C115.039 35.3361 114.741 34.8979 114.397 34.3572C114.438 34.734 114.458 35.1887 114.458 35.7212V41.005C114.458 41.6521 114.475 42.1313 114.507 42.4427L115.649 42.5902C115.698 42.7376 115.698 42.8851 115.649 43.0325C114.945 43.016 114.446 43.008 114.152 43.008C113.669 43.008 113.174 43.0202 112.667 43.0448C112.634 42.8647 112.634 42.713 112.667 42.5902L113.783 42.4673V35.2297C113.783 34.5825 113.767 34.1033 113.734 33.792L112.716 33.6445C112.667 33.5052 112.667 33.366 112.716 33.2267H115.121L120.042 39.936C120.108 40.0262 120.177 40.1326 120.251 40.2554C120.333 40.3783 120.419 40.5258 120.508 40.6978C120.607 40.8698 120.684 41.0008 120.742 41.091C120.701 40.5995 120.68 40.1406 120.68 39.7148ZM123.256 33.2267H131.736L131.748 36.0775C131.568 36.1103 131.417 36.1103 131.294 36.0775L130.717 33.8534H128.164V42.4673L129.404 42.5902C129.437 42.713 129.437 42.8647 129.404 43.0448C128.889 43.0202 128.267 43.008 127.539 43.008C126.974 43.008 126.348 43.016 125.661 43.0325C125.612 42.8851 125.612 42.7376 125.661 42.5902L126.802 42.4427C126.835 42.1313 126.851 41.6521 126.851 41.005V33.8534H124.274L123.698 36.0775C123.575 36.1103 123.424 36.1103 123.243 36.0775L123.256 33.2267ZM133.712 41.0173V33.7674L132.718 33.6322C132.669 33.4848 132.669 33.3373 132.718 33.1898L134.4 33.2267H139.358L139.37 36.0775C139.19 36.1103 139.038 36.1103 138.916 36.0775L138.339 33.8534H135.026V37.5398L136.989 37.5029L137.271 36.2987C137.394 36.266 137.546 36.266 137.725 36.2987C137.693 36.7575 137.676 37.2859 137.676 37.8839C137.676 38.4326 137.689 38.9652 137.713 39.4813C137.566 39.5305 137.419 39.5305 137.271 39.4813L137.001 38.2034L135.026 38.1665V42.3813H138.707L139.284 40.1571C139.407 40.1245 139.558 40.1245 139.738 40.1571L139.726 43.008H134.4L132.645 43.0448C132.596 42.8974 132.596 42.7499 132.645 42.6025L133.663 42.4673C133.696 42.0495 133.712 41.566 133.712 41.0173ZM141.048 33.1898C141.383 33.1898 141.915 33.1735 142.643 33.1407C143.379 33.1079 144.046 33.0915 144.643 33.0915C145.887 33.0915 146.775 33.3414 147.306 33.8411C147.838 34.3326 148.104 35.0208 148.104 35.9055C148.104 36.438 147.92 36.9172 147.552 37.3432C147.184 37.7692 146.701 38.0887 146.104 38.3017C146.456 38.8995 146.783 39.461 147.085 39.9851C147.396 40.5093 147.621 40.8986 147.76 41.1525C147.9 41.4063 148.026 41.6359 148.141 41.8406C148.255 42.0372 148.337 42.1724 148.386 42.2461C148.444 42.3198 148.497 42.3813 148.546 42.4304L149.429 42.5533C149.462 42.6762 149.462 42.8279 149.429 43.008H147.343L145.49 39.641C145.245 39.1741 145.011 38.8135 144.791 38.5597H144.619C144.201 38.5597 143.78 38.5351 143.355 38.486V42.4673L144.471 42.5902C144.504 42.713 144.504 42.8647 144.471 43.0448C143.956 43.0202 143.375 43.008 142.729 43.008C142.246 43.008 141.661 43.016 140.974 43.0325C140.925 42.8851 140.925 42.7376 140.974 42.5902L141.993 42.4427C142.026 42.1313 142.042 41.6521 142.042 41.005V33.7674L141.048 33.6445C141.015 33.5216 141.015 33.3701 141.048 33.1898ZM143.355 35.2297V37.9822C143.609 38.0149 143.977 38.0313 144.459 38.0313C144.876 38.0313 145.232 37.9658 145.527 37.8347C145.83 37.6954 146.055 37.5152 146.202 37.294C146.349 37.0647 146.456 36.8312 146.521 36.5936C146.586 36.356 146.619 36.1062 146.619 35.8441C146.619 35.1395 146.443 34.5907 146.091 34.1975C145.74 33.8042 145.155 33.6076 144.336 33.6076C144.034 33.6076 143.731 33.6363 143.428 33.6937C143.379 34.1606 143.355 34.6726 143.355 35.2297ZM151.913 35.328L153.533 38.105L156.098 33.7674L155.104 33.6445C155.071 33.5216 155.071 33.3701 155.104 33.1898C155.554 33.2226 156.004 33.239 156.454 33.239C156.846 33.239 157.305 33.2267 157.828 33.2021C157.877 33.3496 157.877 33.497 157.828 33.6445L157.067 33.792C156.716 34.1934 156.446 34.5579 156.257 34.8856L153.852 38.8178V42.4673L154.846 42.5902C154.879 42.713 154.879 42.8647 154.846 43.0448C154.331 43.0202 153.77 43.008 153.165 43.008C152.723 43.008 152.159 43.016 151.471 43.0325C151.422 42.8851 151.422 42.7376 151.471 42.5902L152.49 42.4427C152.523 42.1313 152.539 41.6521 152.539 41.005V38.7809L149.606 33.7674L148.735 33.6445C148.702 33.5216 148.702 33.3701 148.735 33.1898C149.185 33.2226 149.799 33.239 150.576 33.239C151.287 33.239 151.909 33.2267 152.441 33.2021C152.49 33.3496 152.49 33.497 152.441 33.6445L151.238 33.878C151.492 34.5088 151.717 34.9921 151.913 35.328Z" fill="black"/>
</g>
<defs>
<filter id="filter0_f_5_126" x="-2.83592" y="21.704" width="48.8918" height="28.976" filterUnits="userSpaceOnUse" color-interpolation-filters="sRGB">
<feFlood flood-opacity="0" result="BackgroundImageFix"/>
<feBlend mode="normal" in="SourceGraphic" in2="BackgroundImageFix" result="shape"/>
<feGaussianBlur stdDeviation="2.3" result="effect1_foregroundBlur_5_126"/>
</filter>
<filter id="filter1_n_5_126" x="22.2811" y="8.83203" width="19.1748" height="32.256" filterUnits="userSpaceOnUse" color-interpolation-filters="sRGB">
<feFlood flood-opacity="0" result="BackgroundImageFix"/>
<feBlend mode="normal" in="SourceGraphic" in2="BackgroundImageFix" result="shape"/>
<feTurbulence type="fractalNoise" baseFrequency="10 10" stitchTiles="stitch" numOctaves="3" result="noise" seed="9223" />
<feColorMatrix in="noise" type="luminanceToAlpha" result="alphaNoise" />
<feComponentTransfer in="alphaNoise" result="coloredNoise1">
<feFuncA type="discrete" tableValues="1 1 1 1 1 1 1 1 1 1 1 1 1 1 1 1 1 1 1 1 1 1 1 1 1 1 1 1 1 1 1 1 1 1 1 1 1 1 1 1 1 1 1 1 1 1 1 1 1 1 1 0 0 0 0 0 0 0 0 0 0 0 0 0 0 0 0 0 0 0 0 0 0 0 0 0 0 0 0 0 0 0 0 0 0 0 0 0 0 0 0 0 0 0 0 0 0 0 0 0 "/>
</feComponentTransfer>
<feComposite operator="in" in2="shape" in="coloredNoise1" result="noise1Clipped" />
<feFlood flood-color="rgba(0, 0, 0, 0.25)" result="color1Flood" />
<feComposite operator="in" in2="noise1Clipped" in="color1Flood" result="color1" />
<feMerge result="effect1_noise_5_126">
<feMergeNode in="shape" />
<feMergeNode in="color1" />
</feMerge>
</filter>
<filter id="filter2_n_5_126" x="41.4558" y="8.83203" width="16.8738" height="32.256" filterUnits="userSpaceOnUse" color-interpolation-filters="sRGB">
<feFlood flood-opacity="0" result="BackgroundImageFix"/>
<feBlend mode="normal" in="SourceGraphic" in2="BackgroundImageFix" result="shape"/>
<feTurbulence type="fractalNoise" baseFrequency="10 10" stitchTiles="stitch" numOctaves="3" result="noise" seed="9223" />
<feColorMatrix in="noise" type="luminanceToAlpha" result="alphaNoise" />
<feComponentTransfer in="alphaNoise" result="coloredNoise1">
<feFuncA type="discrete" tableValues="1 1 1 1 1 1 1 1 1 1 1 1 1 1 1 1 1 1 1 1 1 1 1 1 1 1 1 1 1 1 1 1 1 1 1 1 1 1 1 1 1 1 1 1 1 1 1 1 1 1 1 0 0 0 0 0 0 0 0 0 0 0 0 0 0 0 0 0 0 0 0 0 0 0 0 0 0 0 0 0 0 0 0 0 0 0 0 0 0 0 0 0 0 0 0 0 0 0 0 0 "/>
</feComponentTransfer>
<feComposite operator="in" in2="shape" in="coloredNoise1" result="noise1Clipped" />
<feFlood flood-color="rgba(0, 0, 0, 0.25)" result="color1Flood" />
<feComposite operator="in" in2="noise1Clipped" in="color1Flood" result="color1" />
<feMerge result="effect1_noise_5_126">
<feMergeNode in="shape" />
<feMergeNode in="color1" />
</feMerge>
</filter>
<filter id="filter3_n_5_126" x="22.2811" y="0.767944" width="36.0485" height="15.936" filterUnits="userSpaceOnUse" color-interpolation-filters="sRGB">
<feFlood flood-opacity="0" result="BackgroundImageFix"/>
<feBlend mode="normal" in="SourceGraphic" in2="BackgroundImageFix" result="shape"/>
<feTurbulence type="fractalNoise" baseFrequency="10 10" stitchTiles="stitch" numOctaves="3" result="noise" seed="9223" />
<feColorMatrix in="noise" type="luminanceToAlpha" result="alphaNoise" />
<feComponentTransfer in="alphaNoise" result="coloredNoise1">
<feFuncA type="discrete" tableValues="1 1 1 1 1 1 1 1 1 1 1 1 1 1 1 1 1 1 1 1 1 1 1 1 1 1 1 1 1 1 1 1 1 1 1 1 1 1 1 1 1 1 1 1 1 1 1 1 1 1 1 0 0 0 0 0 0 0 0 0 0 0 0 0 0 0 0 0 0 0 0 0 0 0 0 0 0 0 0 0 0 0 0 0 0 0 0 0 0 0 0 0 0 0 0 0 0 0 0 0 "/>
</feComponentTransfer>
<feComposite operator="in" in2="shape" in="coloredNoise1" result="noise1Clipped" />
<feFlood flood-color="rgba(0, 0, 0, 0.25)" result="color1Flood" />
<feComposite operator="in" in2="noise1Clipped" in="color1Flood" result="color1" />
<feMerge result="effect1_noise_5_126">
<feMergeNode in="shape" />
<feMergeNode in="color1" />
</feMerge>
</filter>
<linearGradient id="paint0_linear_5_126" x1="18.8296" y1="36.096" x2="37.6429" y2="19.2246" gradientUnits="userSpaceOnUse">
<stop stop-color="#AEAEAE"/>
<stop offset="1" stop-color="#696969"/>
</linearGradient>
<linearGradient id="paint1_linear_5_126" x1="41.4558" y1="43.776" x2="55.6754" y2="14.6068" gradientUnits="userSpaceOnUse">
<stop stop-color="#D9D9D9"/>
<stop offset="1" stop-color="#969696"/>
</linearGradient>
<linearGradient id="paint2_linear_5_126" x1="35.8951" y1="0.767944" x2="47.227" y2="15.5375" gradientUnits="userSpaceOnUse">
<stop stop-color="#D9D9D9"/>
<stop offset="1" stop-color="#DFDFDF"/>
</linearGradient>
<clipPath id="clip0_5_126">
<rect width="158" height="48" fill="white"/>
</clipPath>
</defs>
</svg>
